# xmcd CD database file generated by OrangeCD 5.2
#
# Track frame offsets:
#	150
#	7571
#	23512
#	42346
#	59971
#	78575
#	95254
#	114987
#	136948
#	155703
#	173684
#	191526
#	209610
#	226665
#	243825
#	267122
#	283613
#	302018
#	316720
#
# Disc length: 4468 seconds
#
# Revision: 1
# Processed by: cddbd v1.5.1PL0 Copyright (c) Steve Scherf et al.
# Submitted via: OrangeCD 5.2
#
DISCID=ed117213
DTITLE=Beres Hammond - Love Has No Boundaries
DYEAR=2004
DGENRE=Reggae
TTITLE0=Interlude
TTITLE1=Solid Love
TTITLE2=Good Old Dancehall Vibes (feat Big Youth)
TTITLE3=Songs of Happiness
TTITLE4=All For Me
TTITLE5=Thanks Fe Mi Pride and Joy (feat Buju Banton)
TTITLE6=Love Mood
TTITLE7=There For You
TTITLE8=No More
TTITLE9=If This Isn't Love
TTITLE10=Love Has No Boundaries
TTITLE11=Feel Love
TTITLE12=Let The Good Times Roll (feat Natural Black)
TTITLE13=Weary Soldier
TTITLE14=Be That Person
TTITLE15=If I Should Wait
TTITLE16=Not Over Until It's Done
TTITLE17=Let It Flow
TTITLE18=Fly Like An Angel
EXTD=
EXTT0=
EXTT1=
EXTT2=
EXTT3=
EXTT4=
EXTT5=
EXTT6=
EXTT7=
EXTT8=
EXTT9=
EXTT10=
EXTT11=
EXTT12=
EXTT13=
EXTT14=
EXTT15=
EXTT16=
EXTT17=
EXTT18=
PLAYORDER=
